<svg width="18px" height="18px" viewBox="0 0 18 18" version="1.1" xmlns="http://www.w3.org/2000/svg" xmlns:xlink="http://www.w3.org/1999/xlink">
    <!-- Generator: Sketch 50.2 (55047) - http://www.bohemiancoding.com/sketch -->
    <desc>Created with Sketch.</desc>
    <defs></defs>
    <g id="Dealer-Locator" stroke="none" stroke-width="1" fill="none" fill-rule="evenodd">
        <g id="Desktop_Dealer_Locator_0.1_Default" transform="translate(-631.000000, -348.000000)" fill="#000000" stroke="#000000">
            <g id="FIND-A-DEALERSHIP">
                <g id="SEARCH" transform="translate(70.000000, 116.000000)">
                    <g id="Input" transform="translate(0.000000, 231.000000)">
                        <path d="M568.285714,13.4285714 C566.912011,13.4285714 565.620522,12.8936114 564.649169,11.9222591 C563.677798,10.9509068 563.142857,9.65941745 563.142857,8.28571429 C563.142857,6.91201113 563.677798,5.62052177 564.649169,4.64916945 C565.620522,3.67779779 566.912011,3.14285714 568.285714,3.14285714 C569.659417,3.14285714 570.950907,3.67779779 571.922259,4.64916945 C572.893611,5.62052177 573.428571,6.91201113 573.428571,8.28571429 C573.428571,9.65941745 572.893611,10.9509068 571.922259,11.9222591 C570.950907,12.8936114 569.659417,13.4285714 568.285714,13.4285714 Z M578,17.1954926 L572.93463,12.1315228 C573.322377,11.6659 573.637882,11.1486531 573.875136,10.5875738 C574.197579,9.82515448 574.361076,9.01558514 574.361076,8.18135068 C574.361076,7.34713518 574.197579,6.53754688 573.875136,5.77510857 C573.56382,5.03898477 573.118258,4.37797487 572.550845,3.81046869 C571.983413,3.24298147 571.32249,2.79736002 570.586463,2.48598428 C569.824125,2.16351776 569.014644,2 568.180538,2 C567.346432,2 566.53695,2.16351776 565.774631,2.48598428 C565.038566,2.79736002 564.377662,3.24298147 563.81025,3.81046869 C563.242818,4.37797487 562.797255,5.03898477 562.485939,5.77510857 C562.163496,6.53754688 562,7.34713518 562,8.18135068 C562,9.01558514 562.163496,9.82515448 562.485939,10.5875738 C562.797255,11.3237356 563.242818,11.9847265 563.81025,12.5522327 C564.377662,13.1197388 565.038566,13.5653413 565.774631,13.8766981 C566.53695,14.1991836 567.346432,14.3627014 568.180538,14.3627014 C569.014644,14.3627014 569.824125,14.1991836 570.586463,13.8766981 C571.147526,13.6393746 571.664781,13.3237711 572.130399,12.9358975 L577.195921,18 L578,17.1954926 Z" id="Search-icon"></path>
                    </g>
                </g>
            </g>
        </g>
    </g>
</svg>
